<?xml version="1.0" encoding="utf-8"?>
<!-- Generator: Adobe Illustrator 16.0.0, SVG Export Plug-In . SVG Version: 6.00 Build 0)  -->
<!DOCTYPE svg PUBLIC "-//W3C//DTD SVG 1.1//EN" "http://www.w3.org/Graphics/SVG/1.1/DTD/svg11.dtd">
<svg version="1.1" id="Layer_1" xmlns="http://www.w3.org/2000/svg" xmlns:xlink="http://www.w3.org/1999/xlink" x="0px" y="0px"
	 width="330.611px" height="90.911px" viewBox="0 0 330.611 90.911" enable-background="new 0 0 330.611 90.911"
	 xml:space="preserve">
<g>
	<path fill="#F05E22" d="M74.2,3.797c-3.667-0.23-8.019,1.266-10.763,3.878c0,0,3.693,1.657,4.631,2.906
		c1.721-1.073,2.626-1.345,5.007-1.195c4.329,0.275,8.043,3.52,7.854,7.855c-0.428,9.753-11.71,8.847-13.026,5.547
		c0,0-3.175-8.537-12.874-11.027c-3.692-4.177-10.464-7.14-16.018-7.14c-4.552,0-8.225,2.375-10.811,5.64
		c-2.176,2.958-4.147,7.756-4.021,15.384c0.243,14.335,10.454,17.66,15.885,16.871c1.201-0.281,1.94-0.544,1.94-0.544
		c-0.527,0.249-1.188,0.439-1.94,0.544c-5.543,1.3-20.952,3.021-19.558-18.505c0.301-4.652,0.812-8.123,1.405-10.71
		C11.859,17.574-0.587,27.6,3.152,50.819c0,0,1.168,4.111,1.443,4.847l-0.001-0.008c1.221,3.354,2.951,6.861,5.283,10.515
		c1.889,3.058,5.755,7.747,9.695,11.964c0,0,3.558,0.053,9.381,0c2.342-7.869,6.758-12.708,6.758-12.708s4.413,4.476,6.382,12.708
		c12.941,0.053,12.941,0.053,12.941,0.053c-2.347-18.777,6.274-30.716,16.588-34.049c-2.62-1.286-3.299-1.17-5.509-3.096
		c21.295-0.657,22.519-19.797,22.519-19.797C88.827,11.402,84.004,4.42,74.2,3.797z"/>
	<path fill="#FFFFFF" d="M60.947,26.224c0,1.768-1.43,3.198-3.196,3.198s-3.198-1.43-3.198-3.198c0-1.762,1.432-3.193,3.198-3.193
		S60.947,24.462,60.947,26.224z"/>
	<g>
		<path fill="#593C7F" d="M110.636,76.508c-2.887,1.398-6.656,2.097-11.308,2.097c-6.068,0-10.839-1.783-14.314-5.353
			c-3.475-3.568-5.212-8.323-5.212-14.265c0-6.328,1.953-11.46,5.86-15.396s8.978-5.905,15.21-5.905
			c3.861,0,7.115,0.487,9.763,1.462v8.581c-2.648-1.582-5.664-2.373-9.046-2.373c-3.714,0-6.711,1.168-8.991,3.504
			c-2.28,2.336-3.42,5.5-3.42,9.492c0,3.826,1.076,6.875,3.227,9.147c2.151,2.271,5.047,3.407,8.688,3.407
			c3.475,0,6.656-0.846,9.542-2.538V76.508z"/>
		<path fill="#593C7F" d="M135.099,57.524c-1.049-0.57-2.271-0.855-3.668-0.855c-1.895,0-3.375,0.694-4.441,2.083
			c-1.066,1.389-1.6,3.279-1.6,5.67v13.493h-8.715V49.661h8.715v5.242h0.111c1.379-3.826,3.861-5.739,7.447-5.739
			c0.918,0,1.635,0.11,2.15,0.331V57.524z"/>
		<path fill="#593C7F" d="M143.566,45.19c-1.472,0-2.676-0.437-3.613-1.311c-0.938-0.874-1.406-1.945-1.406-3.214
			c0-1.306,0.469-2.373,1.406-3.201c0.938-0.828,2.142-1.242,3.613-1.242c1.489,0,2.698,0.414,3.627,1.242
			c0.928,0.828,1.393,1.895,1.393,3.201c0,1.324-0.465,2.41-1.393,3.256C146.265,44.768,145.056,45.19,143.566,45.19z
			 M147.868,77.915h-8.715V49.661h8.715V77.915z"/>
		<path fill="#593C7F" d="M153.356,77.17v-7.063c1.435,0.865,2.863,1.509,4.289,1.932c1.424,0.423,2.771,0.635,4.04,0.635
			c1.544,0,2.762-0.212,3.654-0.635c0.892-0.423,1.338-1.066,1.338-1.932c0-0.552-0.203-1.012-0.607-1.38s-0.924-0.689-1.558-0.966
			c-0.635-0.275-1.329-0.524-2.083-0.745s-1.479-0.469-2.179-0.745c-1.121-0.422-2.109-0.877-2.965-1.365
			c-0.854-0.487-1.571-1.053-2.15-1.697c-0.58-0.644-1.021-1.389-1.324-2.235c-0.304-0.846-0.455-1.849-0.455-3.007
			c0-1.582,0.345-2.943,1.034-4.083s1.608-2.074,2.758-2.801c1.149-0.727,2.464-1.26,3.944-1.601c1.479-0.34,3.02-0.51,4.619-0.51
			c1.25,0,2.519,0.097,3.806,0.29c1.287,0.193,2.556,0.474,3.807,0.842v6.732c-1.104-0.644-2.285-1.126-3.544-1.449
			c-1.26-0.321-2.496-0.483-3.71-0.483c-0.57,0-1.107,0.051-1.613,0.152c-0.506,0.102-0.951,0.249-1.338,0.441
			c-0.386,0.193-0.689,0.442-0.91,0.745c-0.22,0.304-0.33,0.648-0.33,1.035c0,0.515,0.165,0.957,0.496,1.325
			s0.763,0.686,1.296,0.952c0.533,0.267,1.126,0.506,1.779,0.717c0.652,0.212,1.301,0.428,1.944,0.648
			c1.158,0.405,2.206,0.847,3.144,1.325c0.938,0.479,1.742,1.04,2.414,1.683c0.671,0.644,1.186,1.398,1.544,2.263
			c0.358,0.864,0.538,1.895,0.538,3.09c0,1.675-0.363,3.104-1.09,4.291s-1.691,2.152-2.896,2.897s-2.593,1.287-4.165,1.628
			c-1.571,0.34-3.203,0.51-4.895,0.51C158.882,78.604,156.004,78.126,153.356,77.17z"/>
		<path fill="#593C7F" d="M188.879,74.632h-0.11v16.279h-8.715v-41.25h8.715v4.249h0.11c2.151-3.292,5.176-4.939,9.074-4.939
			c3.658,0,6.485,1.255,8.48,3.766c1.995,2.511,2.992,5.928,2.992,10.251c0,4.708-1.163,8.489-3.488,11.34
			c-2.326,2.852-5.42,4.276-9.28,4.276C193.255,78.604,190.662,77.28,188.879,74.632z M188.631,63.043v2.262
			c0,1.95,0.515,3.542,1.545,4.773c1.029,1.233,2.381,1.85,4.054,1.85c1.986,0,3.525-0.769,4.62-2.305
			c1.094-1.535,1.641-3.71,1.641-6.525c0-4.967-1.931-7.45-5.792-7.45c-1.783,0-3.24,0.676-4.371,2.028
			S188.631,60.817,188.631,63.043z"/>
		<path fill="#593C7F" d="M239.983,42.542h-11.418v35.374h-4.633V42.542h-11.391v-4.194h27.441V42.542z"/>
		<path fill="#593C7F" d="M247.899,42.486c-0.809,0-1.498-0.276-2.068-0.828s-0.854-1.25-0.854-2.097
			c0-0.846,0.284-1.549,0.854-2.111c0.57-0.561,1.26-0.841,2.068-0.841c0.828,0,1.531,0.281,2.11,0.841
			c0.579,0.562,0.868,1.265,0.868,2.111c0,0.81-0.289,1.5-0.868,2.07S248.728,42.486,247.899,42.486z M250.106,77.915h-4.523V49.661
			h4.523V77.915z"/>
		<path fill="#593C7F" d="M299.362,77.915h-4.522V61.691c0-3.127-0.483-5.39-1.448-6.788c-0.965-1.397-2.588-2.097-4.868-2.097
			c-1.931,0-3.571,0.883-4.923,2.649c-1.352,1.766-2.026,3.881-2.026,6.346v16.114h-4.523V61.139c0-5.555-2.143-8.333-6.426-8.333
			c-1.986,0-3.623,0.833-4.909,2.497c-1.287,1.665-1.931,3.831-1.931,6.498v16.114h-4.523V49.661h4.523v4.47h0.11
			c2.004-3.421,4.927-5.132,8.77-5.132c1.931,0,3.613,0.538,5.048,1.614c1.434,1.076,2.417,2.488,2.951,4.235
			c2.096-3.899,5.221-5.85,9.377-5.85c6.214,0,9.321,3.835,9.321,11.506V77.915z"/>
		<path fill="#593C7F" d="M330.611,64.919h-19.94c0.073,3.146,0.919,5.573,2.537,7.284s3.843,2.566,6.675,2.566
			c3.181,0,6.104-1.049,8.771-3.146v4.249c-2.482,1.803-5.765,2.704-9.846,2.704c-3.99,0-7.126-1.283-9.405-3.849
			c-2.28-2.566-3.42-6.177-3.42-10.831c0-4.396,1.245-7.979,3.737-10.747c2.491-2.768,5.585-4.153,9.28-4.153
			c3.696,0,6.555,1.196,8.577,3.587s3.034,5.711,3.034,9.96V64.919z M325.978,61.083c-0.019-2.611-0.647-4.645-1.889-6.098
			s-2.965-2.18-5.172-2.18c-2.133,0-3.943,0.763-5.433,2.29s-2.409,3.523-2.758,5.987H325.978z"/>
	</g>
</g>
</svg>
